<svg xmlns="http://www.w3.org/2000/svg" viewBox="0 0 520 160" width="520" height="160">
  <defs>
    <linearGradient id="bgG" x1="0" y1="0" x2="1" y2="1">
      <stop offset="0%" stop-color="#0a1628"/>
      <stop offset="100%" stop-color="#061020"/>
    </linearGradient>
  </defs>

  <!-- Background -->
  <rect width="520" height="160" rx="18" fill="url(#bgG)"/>

  <!-- Hexagon icon -->
  <g transform="translate(28, 24)">
    <polygon points="54,0 108,31 108,93 54,124 0,93 0,31" fill="#0C447C" stroke="#378ADD" stroke-width="1.2"/>
    <polygon points="54,9 100,34 100,90 54,115 8,90 8,34" fill="none" stroke="#185FA5" stroke-width="0.7"/>
    <polygon points="54,17 98,40 10,40" fill="#378ADD"/>
    <polygon points="54,22 80,46 80,76 28,76 28,46" fill="none" stroke="#B5D4F4" stroke-width="1.8" stroke-linejoin="round"/>
    <rect x="44" y="56" width="20" height="20" rx="3" fill="#042C53"/>
    <path d="M 36,67 A 18,18 0 0,1 72,67" fill="none" stroke="#85B7EB" stroke-width="1.2" opacity="0.4"/>
    <path d="M 41,73 A 13,13 0 0,1 67,73" fill="none" stroke="#85B7EB" stroke-width="1.2" opacity="0.65"/>
    <path d="M 46,79 A 8,8 0 0,1 62,79" fill="none" stroke="#85B7EB" stroke-width="1.2" opacity="0.9"/>
    <circle cx="54" cy="81" r="2.8" fill="#378ADD"/>
  </g>

  <!-- Wordmark -->
  <text x="162" y="76" font-family="'Helvetica Neue', Helvetica, Arial, sans-serif" font-size="52" font-weight="500" letter-spacing="-2" fill="white">Home</text>
  <text x="162" y="76" font-family="'Helvetica Neue', Helvetica, Arial, sans-serif" font-size="52" font-weight="500" letter-spacing="-2" fill="#85B7EB" dx="124">Core</text>

  <!-- Subtitle -->
  <text x="163" y="104" font-family="'Helvetica Neue', Helvetica, Arial, sans-serif" font-size="11" font-weight="400" letter-spacing="5" fill="#378ADD">SMART HOME PLATFORM</text>

  <!-- Accent line -->
  <rect x="163" y="112" width="60" height="2" rx="1" fill="#378ADD"/>
</svg>
