<svg xmlns="http://www.w3.org/2000/svg" viewBox="0 0 120 140" width="120" height="140">
  <!-- Hexagon icon standalone -->
  <g transform="translate(6, 8)">
    <polygon points="54,0 108,31 108,93 54,124 0,93 0,31" fill="#0C447C" stroke="#378ADD" stroke-width="1.4"/>
    <polygon points="54,9 100,34 100,90 54,115 8,90 8,34" fill="none" stroke="#185FA5" stroke-width="0.8"/>
    <polygon points="54,17 98,40 10,40" fill="#378ADD"/>
    <polygon points="54,22 80,46 80,76 28,76 28,46" fill="none" stroke="#B5D4F4" stroke-width="1.8" stroke-linejoin="round"/>
    <rect x="44" y="56" width="20" height="20" rx="3" fill="#042C53"/>
    <path d="M 36,67 A 18,18 0 0,1 72,67" fill="none" stroke="#85B7EB" stroke-width="1.3" opacity="0.4"/>
    <path d="M 41,73 A 13,13 0 0,1 67,73" fill="none" stroke="#85B7EB" stroke-width="1.3" opacity="0.65"/>
    <path d="M 46,79 A 8,8 0 0,1 62,79" fill="none" stroke="#85B7EB" stroke-width="1.3" opacity="0.9"/>
    <circle cx="54" cy="81" r="3" fill="#378ADD"/>
  </g>
</svg>
